<svg xmlns="http://www.w3.org/2000/svg" xmlns:rdkit="http://www.rdkit.org/xml" xmlns:xlink="http://www.w3.org/1999/xlink" version="1.1" baseProfile="full" xml:space="preserve" width="300px" height="100px" viewBox="0 0 300 100">
<!-- END OF HEADER -->
<rect style="opacity:1.0;fill:#FFFFFF;stroke:none" width="300.0" height="100.0" x="0.0" y="0.0"> </rect>
<ellipse cx="85.0" cy="50.9" rx="11.9" ry="7.5" class="atom-0" style="fill:#FF7F7F;fill-rule:evenodd;stroke:#FF7F7F;stroke-width:1.0px;stroke-linecap:butt;stroke-linejoin:miter;stroke-opacity:1"/>
<path class="bond-0 atom-0 atom-1" d="M 75.4,47.2 L 66.5,42.6" style="fill:none;fill-rule:evenodd;stroke:#000000;stroke-width:0.6px;stroke-linecap:butt;stroke-linejoin:miter;stroke-opacity:1"/>
<path class="bond-1 atom-1 atom-2" d="M 66.5,42.6 L 54.4,50.4" style="fill:none;fill-rule:evenodd;stroke:#000000;stroke-width:0.6px;stroke-linecap:butt;stroke-linejoin:miter;stroke-opacity:1"/>
<path class="bond-2 atom-2 atom-3" d="M 54.4,50.4 L 41.5,43.8" style="fill:none;fill-rule:evenodd;stroke:#000000;stroke-width:0.6px;stroke-linecap:butt;stroke-linejoin:miter;stroke-opacity:1"/>
<path class="bond-3 atom-3 atom-4" d="M 41.5,43.8 L 29.5,51.7" style="fill:none;fill-rule:evenodd;stroke:#000000;stroke-width:0.6px;stroke-linecap:butt;stroke-linejoin:miter;stroke-opacity:1"/>
<path class="bond-4 atom-4 atom-5" d="M 29.5,51.7 L 20.5,47.1" style="fill:none;fill-rule:evenodd;stroke:#000000;stroke-width:0.6px;stroke-linecap:butt;stroke-linejoin:miter;stroke-opacity:1"/>
<path d="M 66.9,42.8 L 66.5,42.6 L 65.9,43.0" style="fill:none;stroke:#000000;stroke-width:0.6px;stroke-linecap:butt;stroke-linejoin:miter;stroke-opacity:1;"/>
<path d="M 55.0,50.0 L 54.4,50.4 L 53.7,50.1" style="fill:none;stroke:#000000;stroke-width:0.6px;stroke-linecap:butt;stroke-linejoin:miter;stroke-opacity:1;"/>
<path d="M 42.2,44.2 L 41.5,43.8 L 40.9,44.2" style="fill:none;stroke:#000000;stroke-width:0.6px;stroke-linecap:butt;stroke-linejoin:miter;stroke-opacity:1;"/>
<path d="M 30.1,51.3 L 29.5,51.7 L 29.0,51.4" style="fill:none;stroke:#000000;stroke-width:0.6px;stroke-linecap:butt;stroke-linejoin:miter;stroke-opacity:1;"/>
<path class="atom-0" d="M 82.0 52.7 L 81.1 52.7 L 77.5 47.2 L 77.5 52.7 L 76.5 52.7 L 76.5 45.6 L 77.5 45.6 L 81.1 51.1 L 81.1 45.6 L 82.0 45.6 L 82.0 52.7 " fill="#000000"/>
<path class="atom-0" d="M 88.8 52.7 L 87.9 52.7 L 87.9 49.4 L 84.3 49.4 L 84.3 52.7 L 83.4 52.7 L 83.4 45.6 L 84.3 45.6 L 84.3 48.6 L 87.9 48.6 L 87.9 45.6 L 88.8 45.6 L 88.8 52.7 " fill="#000000"/>
<path class="atom-0" d="M 93.4 56.2 L 90.3 56.2 L 90.3 55.8 L 91.9 54.0 Q 92.3 53.6, 92.4 53.3 Q 92.6 53.1, 92.6 52.8 Q 92.6 52.4, 92.3 52.2 Q 92.1 52.0, 91.7 52.0 Q 91.3 52.0, 91.0 52.2 Q 90.8 52.5, 90.8 52.9 L 90.2 52.9 Q 90.2 52.3, 90.6 51.9 Q 91.0 51.5, 91.7 51.5 Q 92.4 51.5, 92.8 51.8 Q 93.2 52.2, 93.2 52.7 Q 93.2 53.4, 92.3 54.4 L 91.0 55.8 L 93.4 55.8 L 93.4 56.2 " fill="#000000"/>
<path class="atom-5" d="M 8.6 48.7 L 7.7 48.7 L 7.7 45.4 L 4.1 45.4 L 4.1 48.7 L 3.1 48.7 L 3.1 41.6 L 4.1 41.6 L 4.1 44.6 L 7.7 44.6 L 7.7 41.6 L 8.6 41.6 L 8.6 48.7 " fill="#000000"/>
<path class="atom-5" d="M 13.1 52.2 L 10.1 52.2 L 10.1 51.8 L 11.7 50.0 Q 12.1 49.6, 12.2 49.3 Q 12.3 49.1, 12.3 48.8 Q 12.3 48.4, 12.1 48.2 Q 11.9 47.9, 11.5 47.9 Q 11.1 47.9, 10.8 48.2 Q 10.6 48.5, 10.6 48.9 L 10.0 48.9 Q 10.0 48.3, 10.4 47.9 Q 10.8 47.5, 11.5 47.5 Q 12.2 47.5, 12.5 47.8 Q 12.9 48.1, 12.9 48.7 Q 12.9 49.4, 12.0 50.4 L 10.8 51.7 L 13.1 51.7 L 13.1 52.2 " fill="#000000"/>
<path class="atom-5" d="M 19.4 48.7 L 18.4 48.7 L 14.9 43.2 L 14.9 48.7 L 13.9 48.7 L 13.9 41.6 L 14.9 41.6 L 18.4 47.1 L 18.4 41.6 L 19.4 41.6 L 19.4 48.7 " fill="#000000"/>
<ellipse cx="168.9" cy="50.0" rx="8.7" ry="5.2" class="atom-6" style="fill:#FF7F7F;fill-rule:evenodd;stroke:#FF7F7F;stroke-width:1.0px;stroke-linecap:butt;stroke-linejoin:miter;stroke-opacity:1"/>
<path class="bond-0 atom-0 atom-1" d="M 144.0,62.5 L 129.6,62.5" style="fill:none;fill-rule:evenodd;stroke:#000000;stroke-width:0.6px;stroke-linecap:butt;stroke-linejoin:miter;stroke-opacity:1"/>
<path class="bond-0 atom-0 atom-1" d="M 142.5,59.9 L 131.1,59.9" style="fill:none;fill-rule:evenodd;stroke:#000000;stroke-width:0.6px;stroke-linecap:butt;stroke-linejoin:miter;stroke-opacity:1"/>
<path class="bond-1 atom-1 atom-2" d="M 129.6,62.5 L 122.4,50.0" style="fill:none;fill-rule:evenodd;stroke:#000000;stroke-width:0.6px;stroke-linecap:butt;stroke-linejoin:miter;stroke-opacity:1"/>
<path class="bond-2 atom-2 atom-3" d="M 122.4,50.0 L 129.6,37.5" style="fill:none;fill-rule:evenodd;stroke:#000000;stroke-width:0.6px;stroke-linecap:butt;stroke-linejoin:miter;stroke-opacity:1"/>
<path class="bond-2 atom-2 atom-3" d="M 125.4,50.0 L 131.1,40.1" style="fill:none;fill-rule:evenodd;stroke:#000000;stroke-width:0.6px;stroke-linecap:butt;stroke-linejoin:miter;stroke-opacity:1"/>
<path class="bond-3 atom-3 atom-4" d="M 129.6,37.5 L 144.0,37.5" style="fill:none;fill-rule:evenodd;stroke:#000000;stroke-width:0.6px;stroke-linecap:butt;stroke-linejoin:miter;stroke-opacity:1"/>
<path class="bond-4 atom-4 atom-5" d="M 144.0,37.5 L 151.2,50.0" style="fill:none;fill-rule:evenodd;stroke:#000000;stroke-width:0.6px;stroke-linecap:butt;stroke-linejoin:miter;stroke-opacity:1"/>
<path class="bond-4 atom-4 atom-5" d="M 142.5,40.1 L 148.2,50.0" style="fill:none;fill-rule:evenodd;stroke:#000000;stroke-width:0.6px;stroke-linecap:butt;stroke-linejoin:miter;stroke-opacity:1"/>
<path class="bond-5 atom-5 atom-6" d="M 151.2,50.0 L 161.6,50.0" style="fill:none;fill-rule:evenodd;stroke:#000000;stroke-width:0.6px;stroke-linecap:butt;stroke-linejoin:miter;stroke-opacity:1"/>
<path class="bond-6 atom-5 atom-0" d="M 151.2,50.0 L 144.0,62.5" style="fill:none;fill-rule:evenodd;stroke:#000000;stroke-width:0.6px;stroke-linecap:butt;stroke-linejoin:miter;stroke-opacity:1"/>
<path d="M 143.3,62.5 L 144.0,62.5 L 144.4,61.8" style="fill:none;stroke:#000000;stroke-width:0.6px;stroke-linecap:butt;stroke-linejoin:miter;stroke-opacity:1;"/>
<path d="M 130.3,62.5 L 129.6,62.5 L 129.2,61.8" style="fill:none;stroke:#000000;stroke-width:0.6px;stroke-linecap:butt;stroke-linejoin:miter;stroke-opacity:1;"/>
<path d="M 122.8,50.6 L 122.4,50.0 L 122.8,49.4" style="fill:none;stroke:#000000;stroke-width:0.6px;stroke-linecap:butt;stroke-linejoin:miter;stroke-opacity:1;"/>
<path d="M 129.2,38.2 L 129.6,37.5 L 130.3,37.5" style="fill:none;stroke:#000000;stroke-width:0.6px;stroke-linecap:butt;stroke-linejoin:miter;stroke-opacity:1;"/>
<path d="M 143.3,37.5 L 144.0,37.5 L 144.4,38.2" style="fill:none;stroke:#000000;stroke-width:0.6px;stroke-linecap:butt;stroke-linejoin:miter;stroke-opacity:1;"/>
<path class="atom-6" d="M 168.5 50.3 Q 168.5 51.3, 168.1 52.1 Q 167.7 52.9, 167.1 53.3 Q 166.5 53.7, 165.6 53.7 Q 164.8 53.7, 164.1 53.3 Q 163.5 52.9, 163.1 52.1 Q 162.7 51.3, 162.7 50.3 L 162.7 49.8 Q 162.7 48.8, 163.1 48.0 Q 163.4 47.2, 164.1 46.8 Q 164.8 46.4, 165.6 46.4 Q 166.4 46.4, 167.1 46.8 Q 167.7 47.2, 168.1 48.0 Q 168.5 48.8, 168.5 49.8 L 168.5 50.3 M 167.5 49.8 Q 167.5 48.6, 167.0 47.9 Q 166.5 47.2, 165.6 47.2 Q 164.7 47.2, 164.2 47.9 Q 163.7 48.6, 163.7 49.8 L 163.7 50.3 Q 163.7 51.5, 164.2 52.2 Q 164.7 52.9, 165.6 52.9 Q 166.5 52.9, 167.0 52.2 Q 167.5 51.6, 167.5 50.3 L 167.5 49.8 " fill="#000000"/>
<path class="atom-6" d="M 175.1 53.6 L 174.1 53.6 L 174.1 50.3 L 170.5 50.3 L 170.5 53.6 L 169.6 53.6 L 169.6 46.5 L 170.5 46.5 L 170.5 49.6 L 174.1 49.6 L 174.1 46.5 L 175.1 46.5 L 175.1 53.6 " fill="#000000"/>
<ellipse cx="276.3" cy="50.0" rx="8.2" ry="5.2" class="atom-0" style="fill:#FF7F7F;fill-rule:evenodd;stroke:#FF7F7F;stroke-width:1.0px;stroke-linecap:butt;stroke-linejoin:miter;stroke-opacity:1"/>
<path class="bond-0 atom-0 atom-1" d="M 269.4,50.0 L 258.7,50.0" style="fill:none;fill-rule:evenodd;stroke:#000000;stroke-width:0.6px;stroke-linecap:butt;stroke-linejoin:miter;stroke-opacity:1"/>
<path class="bond-1 atom-1 atom-2" d="M 258.7,50.0 L 251.5,62.5" style="fill:none;fill-rule:evenodd;stroke:#000000;stroke-width:0.6px;stroke-linecap:butt;stroke-linejoin:miter;stroke-opacity:1"/>
<path class="bond-1 atom-1 atom-2" d="M 255.7,50.0 L 250.0,59.9" style="fill:none;fill-rule:evenodd;stroke:#000000;stroke-width:0.6px;stroke-linecap:butt;stroke-linejoin:miter;stroke-opacity:1"/>
<path class="bond-2 atom-2 atom-3" d="M 251.5,62.5 L 237.1,62.5" style="fill:none;fill-rule:evenodd;stroke:#000000;stroke-width:0.6px;stroke-linecap:butt;stroke-linejoin:miter;stroke-opacity:1"/>
<path class="bond-3 atom-3 atom-4" d="M 237.1,62.5 L 229.9,50.0" style="fill:none;fill-rule:evenodd;stroke:#000000;stroke-width:0.6px;stroke-linecap:butt;stroke-linejoin:miter;stroke-opacity:1"/>
<path class="bond-3 atom-3 atom-4" d="M 238.6,59.9 L 232.9,50.0" style="fill:none;fill-rule:evenodd;stroke:#000000;stroke-width:0.6px;stroke-linecap:butt;stroke-linejoin:miter;stroke-opacity:1"/>
<path class="bond-4 atom-4 atom-5" d="M 229.9,50.0 L 215.5,50.0" style="fill:none;fill-rule:evenodd;stroke:#000000;stroke-width:0.6px;stroke-linecap:butt;stroke-linejoin:miter;stroke-opacity:1"/>
<path class="bond-5 atom-4 atom-6" d="M 229.9,50.0 L 237.1,37.5" style="fill:none;fill-rule:evenodd;stroke:#000000;stroke-width:0.6px;stroke-linecap:butt;stroke-linejoin:miter;stroke-opacity:1"/>
<path class="bond-6 atom-6 atom-7" d="M 237.1,37.5 L 251.5,37.5" style="fill:none;fill-rule:evenodd;stroke:#000000;stroke-width:0.6px;stroke-linecap:butt;stroke-linejoin:miter;stroke-opacity:1"/>
<path class="bond-6 atom-6 atom-7" d="M 238.6,40.1 L 250.0,40.1" style="fill:none;fill-rule:evenodd;stroke:#000000;stroke-width:0.6px;stroke-linecap:butt;stroke-linejoin:miter;stroke-opacity:1"/>
<path class="bond-7 atom-7 atom-1" d="M 251.5,37.5 L 258.7,50.0" style="fill:none;fill-rule:evenodd;stroke:#000000;stroke-width:0.6px;stroke-linecap:butt;stroke-linejoin:miter;stroke-opacity:1"/>
<path d="M 251.9,61.8 L 251.5,62.5 L 250.8,62.5" style="fill:none;stroke:#000000;stroke-width:0.6px;stroke-linecap:butt;stroke-linejoin:miter;stroke-opacity:1;"/>
<path d="M 237.8,62.5 L 237.1,62.5 L 236.8,61.8" style="fill:none;stroke:#000000;stroke-width:0.6px;stroke-linecap:butt;stroke-linejoin:miter;stroke-opacity:1;"/>
<path d="M 236.8,38.2 L 237.1,37.5 L 237.8,37.5" style="fill:none;stroke:#000000;stroke-width:0.6px;stroke-linecap:butt;stroke-linejoin:miter;stroke-opacity:1;"/>
<path d="M 250.8,37.5 L 251.5,37.5 L 251.9,38.2" style="fill:none;stroke:#000000;stroke-width:0.6px;stroke-linecap:butt;stroke-linejoin:miter;stroke-opacity:1;"/>
<path class="atom-0" d="M 273.1 50.4 Q 271.9 50.1, 271.3 49.6 Q 270.8 49.1, 270.8 48.3 Q 270.8 47.5, 271.4 46.9 Q 272.1 46.4, 273.2 46.4 Q 273.9 46.4, 274.5 46.7 Q 275.1 47.0, 275.4 47.5 Q 275.7 48.0, 275.7 48.5 L 274.8 48.5 Q 274.8 47.9, 274.3 47.5 Q 273.9 47.2, 273.2 47.2 Q 272.5 47.2, 272.1 47.5 Q 271.7 47.8, 271.7 48.3 Q 271.7 48.8, 272.1 49.1 Q 272.5 49.4, 273.3 49.6 Q 274.2 49.9, 274.7 50.2 Q 275.2 50.5, 275.5 50.9 Q 275.7 51.3, 275.7 51.8 Q 275.7 52.7, 275.0 53.2 Q 274.4 53.7, 273.2 53.7 Q 272.5 53.7, 271.9 53.4 Q 271.2 53.1, 270.9 52.7 Q 270.5 52.2, 270.5 51.5 L 271.5 51.5 Q 271.5 52.2, 272.0 52.6 Q 272.4 52.9, 273.2 52.9 Q 274.0 52.9, 274.4 52.6 Q 274.8 52.3, 274.8 51.8 Q 274.8 51.3, 274.4 51.0 Q 274.0 50.7, 273.1 50.4 " fill="#000000"/>
<path class="atom-0" d="M 282.1 53.6 L 281.1 53.6 L 281.1 50.3 L 277.6 50.3 L 277.6 53.6 L 276.6 53.6 L 276.6 46.5 L 277.6 46.5 L 277.6 49.6 L 281.1 49.6 L 281.1 46.5 L 282.1 46.5 L 282.1 53.6 " fill="#000000"/>
</svg>